<svg width="202" height="32" viewBox="0 0 202 32" fill="none" xmlns="http://www.w3.org/2000/svg">
<g clip-path="url(#clip0_576_7616)">
<path d="M56.7289 1.02385L56.6166 5.68852L56.5917 6.52417L56.1801 5.80077C55.174 4.01722 53.7854 2.63279 52.0476 1.6641C50.3472 0.699565 48.4264 0.208984 46.3352 0.208984C43.6994 0.208984 41.2797 0.919911 39.1511 2.3085C37.0142 3.70957 35.2805 5.622 33.9959 7.99591C32.7569 10.3657 32.125 13.1096 32.125 16.1445C32.125 19.1795 32.7154 21.8777 33.8836 24.2516C35.0477 26.5798 36.6816 28.4506 38.7354 29.8101C40.8224 31.1239 43.2213 31.7932 45.8571 31.7932C50.5426 31.7932 54.014 29.9141 56.1842 26.2014L56.5917 25.503L56.6166 26.3137L56.7289 30.9534H63.4681V1.02385H56.7289ZM54.4215 22.8963C52.7959 24.684 50.659 25.5861 48.0689 25.5861C45.4788 25.5861 43.3252 24.684 41.6581 22.9004C40.0159 21.0961 39.2176 18.8469 39.2176 16.0281C39.2176 13.2094 40.0408 10.8895 41.6581 9.15585C43.321 7.37229 45.4788 6.46597 48.0689 6.46597C50.659 6.46597 52.7959 7.37229 54.4215 9.15585C56.0387 10.8937 56.8578 13.2052 56.8578 16.0281C56.8578 18.8511 56.0387 21.121 54.4215 22.8963Z" fill="black"/>
<path d="M86.8624 1.12621L86.2513 7.72827C85.083 7.31668 83.8815 7.10049 82.68 7.10049C80.2562 7.10049 78.3604 8.00266 77.0425 9.76958C75.737 11.4783 75.0802 13.9437 75.0802 17.0992V30.9477H68V1.03475H74.785L74.839 6.85936L74.8515 8.1357L75.288 6.93419C76.0281 4.91366 77.1256 3.33383 78.5683 2.24873C79.9984 1.13037 81.6822 0.556641 83.578 0.556641C84.2016 0.556641 84.8336 0.619003 85.453 0.731254C86.0309 0.835191 86.5007 0.96823 86.8666 1.12621H86.8624Z" fill="black"/>
<path d="M119.693 1.04688L107.956 30.9515H100.444L88.7031 1.04688H96.6563L104.24 23.6718L104.348 23.9961L104.456 23.6718L112.222 1.04688H119.693Z" fill="black"/>
<path d="M143.905 1.01969L143.772 5.68852L143.755 6.52417L143.343 5.80077C142.333 4.01722 140.945 2.63279 139.211 1.6641C137.51 0.699565 135.59 0.208984 133.499 0.208984C130.859 0.208984 128.443 0.919911 126.314 2.3085C124.178 3.70957 122.44 5.622 121.159 7.99591C119.916 10.3657 119.284 13.1096 119.284 16.1445C119.284 19.1795 119.879 21.8818 121.043 24.2516C122.207 26.5798 123.845 28.4506 125.899 29.8101C127.986 31.1239 130.38 31.7932 133.02 31.7932C137.702 31.7932 141.177 29.9141 143.339 26.2014L143.751 25.503L143.767 26.3137L143.888 30.9534H150.623L150.636 1.028H143.901L143.905 1.01969ZM141.572 22.8921C139.951 24.6798 137.814 25.582 135.22 25.582C132.625 25.582 130.476 24.6798 128.809 22.8963C127.167 21.0919 126.373 18.8427 126.373 16.024C126.373 13.2052 127.192 10.8854 128.809 9.15169C130.472 7.36814 132.63 6.46181 135.22 6.46181C137.81 6.46181 139.951 7.36814 141.572 9.15169C143.19 10.8895 144.009 13.2011 144.009 16.024C144.009 18.8469 143.19 21.1169 141.572 22.8921Z" fill="black"/>
<path d="M201.773 12.8582V30.9473H194.722V14.2343C194.722 9.05412 192.697 6.4266 188.702 6.4266C186.573 6.4266 184.885 7.1791 183.688 8.65915C182.545 10.0893 181.967 12.1473 181.967 14.7748V30.9515H174.97V14.1761C174.97 9.03333 172.966 6.4266 169.012 6.4266C166.879 6.4266 165.191 7.1791 163.998 8.65915C162.813 10.0852 162.219 12.1431 162.219 14.7748V30.9515H155.222V1.02605H161.986L162.04 5.40802L162.052 6.38087L162.476 5.5078C163.287 3.84897 164.501 2.53521 166.085 1.6081C167.677 0.676825 169.54 0.207031 171.635 0.207031C176.125 0.207031 179.223 2.18598 180.848 6.08984L181.056 6.58458L181.272 6.09816C182.087 4.27719 183.38 2.82623 185.122 1.78271C186.864 0.730872 188.851 0.207031 191.03 0.207031C194.485 0.207031 197.154 1.3046 198.971 3.46648C200.829 5.59926 201.773 8.76309 201.773 12.8582Z" fill="black"/>
<path d="M29.9628 22.0346C29.9628 25.61 28.304 28.2957 25.0321 30.0086C21.8932 31.6549 18.0517 32 15.3785 32C10.1983 32 6.26114 31.0105 3.67936 29.0565C1.28466 27.2439 0.0498896 24.6163 0.00415746 21.2488V21.1449L0 20.937H7.3504L7.35871 21.1365V21.2322C7.5167 24.7702 10.4352 26.72 15.5863 26.72C17.6983 26.72 22.6041 26.3251 22.6041 22.6623C22.6041 19.7064 18.6005 19.1493 13.9691 18.4966C7.75367 17.6276 0.710926 16.6382 0.710926 9.50812C0.710926 3.46733 5.60426 0 14.1312 0C23.2527 0 28.3788 3.36339 28.965 9.72847L28.9734 9.84072L28.9942 10.0694H21.6313L21.6147 9.87813L21.6063 9.78667C21.4068 7.60816 19.4154 5.27998 14.4222 5.27998C10.165 5.27998 7.82435 6.61868 7.82435 9.0508C7.82435 11.7573 11.6949 12.2313 16.1808 12.7842C19.2449 13.1584 22.7164 13.5866 25.3647 14.838C28.4578 16.3014 29.9628 18.6587 29.9628 22.0346Z" fill="black"/>
</g>
<defs>
<clipPath id="clip0_576_7616">
<rect width="201.773" height="32" fill="white"/>
</clipPath>
</defs>
</svg>
